<svg width="93" height="67" viewBox="0 0 93 67" fill="none" xmlns="http://www.w3.org/2000/svg">
<path d="M82.6105 0H9.91327C4.44032 0 0 3.2154 0 7.17857V59.8214C0 63.7846 4.44032 67 9.91327 67H82.6105C88.0835 67 92.5238 63.7846 92.5238 59.8214V7.17857C92.5238 3.2154 88.0835 0 82.6105 0ZM57.2698 57.3837C55.5349 57.608 54.8947 56.8304 54.8947 56.1873C54.8947 55.3797 54.936 51.252 54.936 47.917C54.936 45.5839 53.8621 44.1033 52.6023 43.3257C60.2437 42.7125 68.2983 41.9498 68.2983 32.3933C68.2983 29.6714 66.9559 28.3105 64.7667 26.5607C65.1178 25.9176 66.295 23.2705 64.4156 19.8308C61.5449 19.1877 54.9773 22.5078 54.9773 22.5078C52.2512 21.9545 49.2978 21.6703 46.3858 21.6703C43.4738 21.6703 40.5205 21.9545 37.7943 22.5078C37.7943 22.5078 31.2268 19.1877 28.3561 19.8308C26.4767 23.2556 27.6332 25.9027 28.005 26.5607C25.8158 28.3105 24.7832 29.6714 24.7832 32.3933C24.7832 41.9049 32.4866 42.7125 40.1281 43.3257C39.1367 43.9688 38.2487 45.0754 37.9389 46.6607C35.9769 47.3038 30.9583 48.4105 27.9637 44.5819C26.0843 42.219 22.6972 42.0246 22.6972 42.0246C19.3515 41.9946 22.4701 43.55 22.4701 43.55C24.7006 44.2978 26.2702 47.1692 26.2702 47.1692C28.2735 51.6109 37.8563 50.1154 37.8563 50.1154C37.8563 52.1942 37.8976 55.5741 37.8976 56.1873C37.8976 56.8304 37.278 57.608 35.5225 57.3837C21.8918 54.0786 12.3503 44.6866 12.3503 33.7094C12.3503 19.9804 26.8484 9.55647 45.8075 9.55647C64.7667 9.55647 80.1322 19.9804 80.1322 33.7094C80.1529 44.6866 70.9005 54.0935 57.2698 57.3837ZM37.0095 48.246C36.6171 48.3058 36.2454 48.1862 36.2041 47.9917C36.1628 47.7674 36.4313 47.573 36.8237 47.5132C37.2161 47.4833 37.5878 47.6029 37.6291 47.7973C37.6911 47.9917 37.4226 48.1862 37.0095 48.246ZM35.0475 48.1114C35.0475 48.3058 34.7377 48.4703 34.3247 48.4703C33.8703 48.5002 33.5605 48.3357 33.5605 48.1114C33.5605 47.917 33.8703 47.7525 34.2834 47.7525C34.6758 47.7225 35.0475 47.8871 35.0475 48.1114ZM32.2181 47.9469C32.1355 48.1413 31.7224 48.231 31.3714 48.1413C30.979 48.0815 30.7105 47.8571 30.7931 47.6627C30.8757 47.4683 31.2887 47.3786 31.6398 47.4384C32.0529 47.5281 32.3214 47.7525 32.2181 47.9469ZM29.6778 47.1393C29.492 47.3038 29.0996 47.2739 28.7898 47.0496C28.48 46.8551 28.3974 46.571 28.6039 46.4364C28.7898 46.2719 29.1822 46.3018 29.492 46.5261C29.7605 46.7205 29.8637 47.0196 29.6778 47.1393ZM27.7985 45.7783C27.6126 45.8681 27.2615 45.7783 27.0343 45.554C26.8071 45.3297 26.8071 45.0754 27.0343 44.9708C27.2615 44.8362 27.6126 44.9408 27.7985 45.1652C28.0256 45.3895 28.0256 45.6587 27.7985 45.7783ZM26.456 44.3277C26.2702 44.4623 25.9604 44.3875 25.7332 44.2379C25.506 44.0435 25.4647 43.8192 25.6506 43.7145C25.8364 43.5799 26.1462 43.6547 26.3734 43.8042C26.6006 43.9987 26.6419 44.223 26.456 44.3277ZM25.0723 43.221C24.9897 43.3556 24.7212 43.3855 24.494 43.2808C24.2255 43.1911 24.1016 43.0266 24.1842 42.892C24.2668 42.8022 24.494 42.7574 24.7625 42.8321C25.031 42.9368 25.1549 43.1013 25.0723 43.221Z" fill="#F5F5F5"/>
</svg>
