<svg width="89" height="67" viewBox="0 0 89 67" fill="none" xmlns="http://www.w3.org/2000/svg">
<path d="M81.9649 0H6.28529C2.81754 0 0 2.16853 0 4.83058V62.1694C0 64.8315 2.81754 67 6.28529 67H81.9649C85.4326 67 88.2698 64.8315 88.2698 62.1694V4.83058C88.2698 2.16853 85.4326 0 81.9649 0ZM26.678 57.4286H13.5951V25.454H26.6977V57.4286H26.678ZM20.1366 21.0871C15.9398 21.0871 12.5509 18.4998 12.5509 15.3292C12.5509 12.1587 15.9398 9.57143 20.1366 9.57143C24.3136 9.57143 27.7222 12.1587 27.7222 15.3292C27.7222 18.5147 24.3333 21.0871 20.1366 21.0871ZM75.719 57.4286H62.6361V41.875C62.6361 38.1661 62.5376 33.3953 55.8386 33.3953C49.0213 33.3953 47.977 37.4333 47.977 41.6058V57.4286H34.8942V25.454H47.445V29.821H47.6224C49.3759 27.3085 53.6515 24.6614 60.0156 24.6614C73.2561 24.6614 75.719 31.2866 75.719 39.9009V57.4286Z" fill="#F5F5F5"/>
</svg>
