<svg width="115" height="115" viewBox="0 0 115 115" fill="none" xmlns="http://www.w3.org/2000/svg">
<path d="M25.8092 77.5482C38.2712 78.3975 40.9345 78.0896 40.9345 80.6117C40.9345 85.7433 24.1158 85.7587 24.1158 81.0017C24.1184 79.6958 24.9599 78.5899 25.8092 77.5482ZM32.9806 47.6209C24.6957 47.6209 24.321 59.0309 32.7881 59.0309C41.1295 59.0309 40.9242 47.6209 32.9806 47.6209ZM114.947 12.3158V102.631C114.947 105.898 113.649 109.03 111.34 111.34C109.03 113.649 105.898 114.947 102.631 114.947H12.3158C9.04941 114.947 5.91685 113.649 3.6072 111.34C1.29755 109.03 0 105.898 0 102.631L0 12.3158C0 9.04941 1.29755 5.91685 3.6072 3.6072C5.91685 1.29755 9.04941 0 12.3158 0H102.631C105.898 0 109.03 1.29755 111.34 3.6072C113.649 5.91685 114.947 9.04941 114.947 12.3158ZM56.7038 30.0992C56.7038 33.817 58.8539 35.9697 62.5692 35.9697C66.3511 35.9697 68.5038 33.817 68.5038 30.0992C68.5038 26.3814 66.3563 24.3749 62.5743 24.3749C58.859 24.3749 56.7038 26.3865 56.7038 30.0992ZM51.1052 41.8222H38.3918C31.9773 40.1417 17.4653 40.5778 17.4653 53.8173C17.4653 58.6409 19.8771 62.0278 23.0715 63.5955C19.0458 67.2825 17.1394 69.0195 17.1394 71.4827C17.1394 73.2454 17.8553 74.8746 20.008 75.7829C17.7244 77.9382 16.4159 79.4982 16.4159 82.4334C16.421 87.583 20.9188 90.5721 32.7189 90.5721C44.0647 90.5721 50.646 86.336 50.646 78.8388C50.646 69.4301 43.4028 69.7764 26.3301 68.7347L28.4802 65.2889C32.842 66.5051 47.5157 66.8874 47.5157 54.4023C47.5157 51.4029 46.2764 49.3169 45.1039 47.8159L51.1027 47.3592L51.1052 41.8222ZM72.7451 70.0048L69.4095 69.5481C68.4294 69.4172 68.3653 69.2915 68.3653 68.2421V41.1859H54.8693L54.1534 46.4637C58.1945 47.8878 58.5152 47.7107 58.5152 49.0731V68.2498C58.5152 69.6918 58.4357 69.4249 54.1534 70.0125V75.1595H72.7348L72.7451 70.0048ZM98.526 72.6116L96.7633 66.872C86.2616 70.8156 87.0519 63.6878 87.0519 62.5794V47H96.7633V40.4803H87.5727C86.8363 40.4803 87.0596 41.1269 87.0596 30.5687H80.8555C80.1396 37.6759 77.8587 40.5445 72.1318 41.1962V47C77.384 47 77.2172 46.7819 77.2172 47.6517V64.7321C77.2172 72.101 80.1499 75.2287 87.9088 75.2287C91.6164 75.2287 95.7216 73.9895 98.526 72.6116Z" fill="#13173E"/>
</svg>
