<svg width="105" height="67" viewBox="0 0 105 67" fill="none" xmlns="http://www.w3.org/2000/svg">
<path d="M101.346 15.5639L55.9211 0.611109C53.4459 -0.203703 50.7751 -0.203703 48.3015 0.611109L2.87508 15.5639C-0.95836 16.8254 -0.95836 22.2569 2.87508 23.5183L10.7944 26.125C9.05678 28.4264 7.9885 31.2337 7.88265 34.3081C6.31443 35.2712 5.21032 37.009 5.21032 39.0835C5.21032 40.9644 6.13529 42.5469 7.46739 43.5589L3.30988 63.6029C2.94836 65.3459 4.186 67 5.85194 67H14.9893C16.6569 67 17.8945 65.3459 17.533 63.6029L13.3755 43.5589C14.7076 42.5469 15.6326 40.9644 15.6326 39.0835C15.6326 37.0648 14.579 35.3759 13.0824 34.3953C13.2061 31.7746 14.4568 29.4576 16.4517 27.9885L48.2999 38.4728C49.7753 38.9579 52.6056 39.5633 55.9195 38.4728L101.346 23.5201C105.181 22.2569 105.181 16.8271 101.346 15.5639ZM57.4503 43.8101C52.8042 45.3386 48.8454 44.4941 46.7691 43.8101L23.1529 36.0371L20.8437 55.8334C20.8437 62.0012 34.8421 67 52.1105 67C69.3789 67 83.3773 62.0012 83.3773 55.8334L81.0681 36.0354L57.4503 43.8101Z" fill="#F5F5F5"/>
</svg>
