<svg width="115" height="115" viewBox="0 0 115 115" fill="none" xmlns="http://www.w3.org/2000/svg">
<path d="M102.631 0H12.3158C5.51643 0 0 5.51643 0 12.3158V102.631C0 109.431 5.51643 114.947 12.3158 114.947H102.631C109.431 114.947 114.947 109.431 114.947 102.631V12.3158C114.947 5.51643 109.431 0 102.631 0ZM62.5538 89.6484C62.5538 100.835 55.9854 105.941 46.415 105.941C37.7683 105.941 32.765 101.477 30.1993 96.0629L38.9999 90.7517C40.6933 93.7537 42.2328 96.2938 45.9532 96.2938C49.4939 96.2938 51.7518 94.9083 51.7518 89.4945V52.7781H62.5538V89.6484ZM88.109 105.941C78.0767 105.941 71.5853 101.169 68.4294 94.9083L77.23 89.828C79.5392 93.5997 82.5669 96.3964 87.878 96.3964C92.3425 96.3964 95.2162 94.1642 95.2162 91.0596C95.2162 87.3649 92.2912 86.0563 87.3392 83.8754L84.6451 82.7208C76.8452 79.411 71.6879 75.2287 71.6879 66.4281C71.6879 58.3202 77.8715 52.1624 87.4932 52.1624C94.3695 52.1624 99.2958 54.5485 102.837 60.809L94.4208 66.1972C92.5734 62.8873 90.5721 61.5788 87.4675 61.5788C84.3116 61.5788 82.3103 63.5801 82.3103 66.1972C82.3103 69.4301 84.3116 70.7386 88.9557 72.7656L91.6497 73.9202C100.835 77.8458 105.992 81.8741 105.992 90.9057C105.992 100.604 98.3464 105.941 88.109 105.941Z" fill="#13173E"/>
</svg>
