<svg width="95" height="67" viewBox="0 0 95 67" fill="none" xmlns="http://www.w3.org/2000/svg">
<path d="M92.8576 22.124C93.5786 21.5831 94.6508 22.0891 94.6508 22.944V58.625C94.6508 63.2487 90.6762 67 85.7773 67H8.87351C3.97459 67 0 63.2487 0 58.625V22.9615C0 22.0891 1.05373 21.6005 1.79319 22.1414C5.93416 25.1773 11.4246 29.0333 30.2809 41.9622C34.1815 44.6492 40.7627 50.3023 47.3254 50.2675C53.9251 50.3198 60.6357 44.5445 64.3884 41.9622C83.2446 29.0333 88.7166 25.1599 92.8576 22.124ZM47.3254 44.6667C51.6143 44.7365 57.7887 39.5719 60.8945 37.4432C85.426 20.6409 87.2932 19.1753 92.95 14.9878C94.0223 14.2026 94.6508 12.9813 94.6508 11.6901V8.375C94.6508 3.7513 90.6762 0 85.7773 0H8.87351C3.97459 0 0 3.7513 0 8.375V11.6901C0 12.9813 0.62854 14.1852 1.70076 14.9878C7.35762 19.1578 9.22476 20.6409 33.7563 37.4432C36.862 39.5719 43.0365 44.7365 47.3254 44.6667Z" fill="#F5F5F5"/>
</svg>
