<svg width="115" height="71" viewBox="0 0 115 71" fill="none" xmlns="http://www.w3.org/2000/svg">
<path d="M56.809 70.4024C56.4318 70.4024 56.0546 70.2947 55.7134 70.1151L52.265 68.0676C51.7441 67.7802 51.9956 67.6725 52.1752 67.6186C52.8577 67.3851 53.0014 67.3312 53.7377 66.9002C53.8096 66.8642 53.9173 66.8822 53.9892 66.9181L56.6473 68.4986C56.7371 68.5525 56.8808 68.5525 56.9706 68.4986L67.3518 62.4998C67.4416 62.446 67.5134 62.3382 67.5134 62.2125V50.2328C67.5134 50.1071 67.4595 49.9994 67.3518 49.9455L56.9706 43.9646C56.8808 43.9107 56.7551 43.9107 56.6473 43.9646L46.2662 49.9455C46.1584 49.9994 46.1045 50.1251 46.1045 50.2328V62.2125C46.1045 62.3202 46.1764 62.428 46.2662 62.4819L49.1039 64.1163C50.6485 64.8886 51.6004 63.9726 51.6004 63.0746V51.2386C51.6004 51.077 51.7262 50.9333 51.9058 50.9333H53.2169C53.3785 50.9333 53.5222 51.059 53.5222 51.2386V63.0746C53.5222 65.14 52.4087 66.3075 50.451 66.3075C49.8583 66.3075 49.3733 66.3075 48.0622 65.6609L45.3322 64.0983C44.6677 63.7032 44.2366 62.9848 44.2366 62.2125V50.2328C44.2366 49.4605 44.6497 48.7242 45.3322 48.347L55.7134 42.3482C56.3779 41.971 57.24 41.971 57.8866 42.3482L68.2678 48.347C68.9323 48.7421 69.3634 49.4605 69.3634 50.2328V62.2125C69.3634 62.9848 68.9503 63.7212 68.2678 64.0983L57.8866 70.0971C57.5813 70.2947 57.2041 70.4024 56.809 70.4024ZM65.1965 58.5845C65.1965 56.3394 63.6878 55.7467 60.4909 55.3157C57.258 54.8846 56.9347 54.6691 56.9347 53.9147C56.9347 53.2861 57.2041 52.4599 59.5929 52.4599C61.7301 52.4599 62.5204 52.9269 62.8437 54.3637C62.8796 54.5074 62.9874 54.5972 63.1311 54.5972H64.4781C64.5679 54.5972 64.6397 54.5613 64.6936 54.5074C64.7475 54.4356 64.7834 54.3637 64.7655 54.2739C64.5499 51.7954 62.9155 50.6459 59.5929 50.6459C56.6294 50.6459 54.8692 51.9032 54.8692 53.9866C54.8692 56.2676 56.6294 56.8782 59.4671 57.1656C62.8617 57.5068 63.1311 57.9918 63.1311 58.6563C63.1311 59.8237 62.1971 60.3087 60.0059 60.3087C57.258 60.3087 56.6473 59.6262 56.4498 58.2612C56.4318 58.1175 56.3061 58.0097 56.1444 58.0097H54.7974C54.6358 58.0097 54.4921 58.1354 54.4921 58.3151C54.4921 60.0572 55.444 62.1406 59.988 62.1406C63.3107 62.1406 65.1965 60.8475 65.1965 58.5845ZM74.985 49.5863C74.985 50.6818 74.087 51.5799 72.9914 51.5799C71.8958 51.5799 70.9978 50.6818 70.9978 49.5863C70.9978 48.4548 71.9317 47.5926 72.9914 47.5926C74.069 47.5747 74.985 48.4548 74.985 49.5863ZM74.6617 49.5863C74.6617 48.6523 73.9073 47.9159 72.9734 47.9159C72.0574 47.9159 71.3031 48.6523 71.3031 49.5863C71.3031 50.5202 72.0574 51.2745 72.9734 51.2745C73.9073 51.2566 74.6617 50.5022 74.6617 49.5863ZM73.8535 50.6998H73.3865C73.3685 50.592 73.2967 50.0173 73.2967 49.9993C73.2608 49.8736 73.2248 49.8018 73.0632 49.8018H72.6681V50.6998H72.237V48.4547H73.0093C73.2787 48.4547 73.7996 48.4548 73.7996 49.0474C73.7996 49.4605 73.5302 49.5503 73.3685 49.6042C73.6739 49.6222 73.6918 49.8197 73.7457 50.1071C73.7637 50.2867 73.7996 50.592 73.8535 50.6998ZM73.3506 49.1193C73.3506 48.814 73.1351 48.814 73.0273 48.814H72.6681V49.4426H73.0093C73.2967 49.4426 73.3506 49.245 73.3506 49.1193ZM24.6597 23.5256C24.6597 23.0407 24.4083 22.6096 23.9952 22.3761L12.9854 16.0361C12.8058 15.9283 12.5903 15.8745 12.3748 15.8565H12.267C12.0515 15.8565 11.8539 15.9283 11.6563 16.0361L0.664538 22.3761C0.251447 22.6096 0 23.0586 0 23.5256L0.0179605 40.5881C0.0179605 40.8215 0.143684 41.0371 0.341249 41.1628C0.538814 41.2885 0.790261 41.2885 1.00579 41.1628L7.5434 37.4091C7.95649 37.1576 8.20794 36.7266 8.20794 36.2596V28.2851C8.20794 27.8182 8.45938 27.3692 8.87247 27.1357L11.6563 25.5372C11.8719 25.4115 12.0874 25.3576 12.3209 25.3576C12.5544 25.3576 12.7879 25.4115 12.9854 25.5372L15.7693 27.1357C16.1824 27.3692 16.4338 27.8182 16.4338 28.2851V36.2596C16.4338 36.7266 16.6853 37.1756 17.0984 37.4091L23.636 41.1628C23.8335 41.2885 24.103 41.2885 24.3005 41.1628C24.4981 41.055 24.6238 40.8215 24.6238 40.5881L24.6597 23.5256ZM84.8632 4.9006V36.5829C84.8632 37.0499 84.6118 37.4989 84.1987 37.7323L73.1889 44.0904C72.7758 44.3238 72.2729 44.3238 71.8599 44.0904L60.8501 37.7323C60.437 37.4989 60.1855 37.0499 60.1855 36.5829V23.8669C60.1855 23.3999 60.437 22.9509 60.8501 22.7174L71.8599 16.3594C72.2729 16.1259 72.7758 16.1259 73.1889 16.3594L75.9369 17.9399C76.2422 18.1195 76.6373 17.886 76.6373 17.5448V0.661929C76.6373 0.159036 77.1762 -0.164253 77.6252 0.0871939L84.1807 3.75113C84.5938 3.96666 84.8632 4.41567 84.8632 4.9006ZM76.6014 28.0517C76.6014 27.9259 76.5296 27.8182 76.4398 27.7643L72.6681 25.5731C72.5603 25.5192 72.4346 25.5192 72.3268 25.5731L68.5551 27.7643C68.4474 27.8182 68.3935 27.9259 68.3935 28.0517V32.416C68.3935 32.5418 68.4653 32.6495 68.5551 32.7034L72.3268 34.8766C72.4346 34.9305 72.5603 34.9305 72.6501 34.8766L76.4218 32.7034C76.5296 32.6495 76.5835 32.5418 76.5835 32.416V28.0517H76.6014ZM114.282 27.9259C114.696 27.6924 114.947 27.2434 114.947 26.7765V23.7052C114.947 23.2382 114.696 22.7892 114.282 22.5557L103.345 16.1977C102.931 15.9643 102.429 15.9643 102.015 16.1977L91.0057 22.5557C90.5926 22.7892 90.3412 23.2382 90.3412 23.7052V36.4212C90.3412 36.9062 90.5926 37.3372 91.0057 37.5707L101.944 43.803C102.339 44.0365 102.842 44.0365 103.255 43.803L109.864 40.1211C110.313 39.8696 110.313 39.2231 109.864 38.9716L98.7826 32.6136C98.5671 32.4879 98.4414 32.2724 98.4414 32.0389V28.0517C98.4414 27.8182 98.5671 27.6026 98.7826 27.4769L102.231 25.4833C102.429 25.3576 102.698 25.3576 102.896 25.4833L106.344 27.4769C106.542 27.6026 106.685 27.8182 106.685 28.0517V31.1768C106.685 31.6797 107.242 32.003 107.691 31.7515L114.282 27.9259ZM100.399 28.5545C100.327 28.6084 100.273 28.6803 100.273 28.7701V31.2127C100.273 31.3025 100.327 31.3923 100.399 31.4282L102.518 32.6495C102.59 32.7034 102.698 32.7034 102.77 32.6495L104.889 31.4282C104.961 31.3743 105.015 31.3025 105.015 31.2127V28.7701C105.015 28.6803 104.961 28.5905 104.889 28.5545L102.77 27.3332C102.698 27.2794 102.59 27.2794 102.518 27.3332L100.399 28.5545ZM54.7435 36.3674V23.7232C54.7435 23.2562 54.4562 22.8072 54.0431 22.5737L43.0692 16.2516C42.692 16.0361 42.1712 16.0002 41.7401 16.2516L30.7663 22.5737C30.3532 22.8072 30.0658 23.2382 30.0658 23.7232V36.3674C30.0658 36.8702 30.4071 37.3013 30.7843 37.5168L41.7761 43.8389C42.2071 44.0904 42.71 44.0724 43.1051 43.8389L54.061 37.5168C54.3843 37.3372 54.6178 37.0319 54.7076 36.6727C54.7256 36.5829 54.7435 36.4751 54.7435 36.3674ZM41.3989 13.9347L41.2552 14.0245H41.4528L41.3989 13.9347ZM55.0848 37.3193L55.0129 37.1935V37.3552L55.0848 37.3193Z" fill="#13173E"/>
</svg>
