<svg width="115" height="101" viewBox="0 0 115 101" fill="none" xmlns="http://www.w3.org/2000/svg">
<path d="M93.8884 32.5955C92.6761 32.1913 91.4637 31.8097 90.2514 31.4505C90.4534 30.6198 90.633 29.7891 90.8126 28.9585C93.5741 15.5779 91.7556 4.82407 85.6266 1.27688C79.7221 -2.11316 70.0907 1.41158 60.3472 9.8979C59.3818 10.7286 58.4389 11.6041 57.5409 12.4797C56.9347 11.896 56.3061 11.3123 55.6775 10.751C45.4625 1.68099 35.225 -2.13561 29.096 1.43403C23.2139 4.84652 21.4628 14.9717 23.9323 27.6339C24.1793 28.8911 24.4487 30.1259 24.763 31.3831C23.3262 31.7872 21.9118 32.2362 20.5872 32.7077C8.59858 36.8611 0 43.4166 0 50.1967C0 57.2013 9.15984 64.2283 21.6199 68.494C22.6302 68.8307 23.6405 69.1675 24.6732 69.4593C24.3364 70.8064 24.0446 72.1309 23.7752 73.5004C21.4179 85.9605 23.2588 95.8388 29.1409 99.2288C35.2025 102.731 45.3951 99.139 55.3183 90.4506C56.104 89.7547 56.8898 89.0362 57.6756 88.2729C58.6634 89.2383 59.6961 90.1588 60.7289 91.0568C70.3377 99.3186 79.8343 102.664 85.6939 99.2737C91.7556 95.7714 93.7312 85.1523 91.1719 72.2208C90.9698 71.2329 90.7453 70.2226 90.4983 69.1899C91.2168 68.9879 91.9127 68.7634 92.6087 68.5388C105.563 64.2508 114.947 57.3136 114.947 50.1967C114.947 43.3942 106.102 36.7937 93.8884 32.5955ZM63.5127 13.5349C71.8643 6.26091 79.6547 3.40968 83.2019 5.45269C86.996 7.63039 88.4553 16.431 86.0756 27.9931C85.9184 28.7564 85.7613 29.4973 85.5592 30.2381C80.5752 29.1156 75.5238 28.3074 70.45 27.8584C67.5314 23.6826 64.3434 19.6864 60.886 15.9371C61.7616 15.1064 62.6147 14.3207 63.5127 13.5349ZM37.5374 61.8486C38.6824 63.8018 39.8498 65.755 41.0846 67.6633C37.5823 67.2816 34.1025 66.7204 30.6675 65.9795C31.6553 62.7466 32.8901 59.4015 34.327 55.989C35.3597 57.9646 36.4149 59.9178 37.5374 61.8486ZM30.7349 34.8405C33.9677 34.1221 37.4027 33.5384 40.9723 33.0894C39.7825 34.9528 38.615 36.8611 37.5149 38.7918C36.4149 40.7001 35.3372 42.6533 34.327 44.629C32.9126 41.2838 31.7227 38.006 30.7349 34.8405ZM36.8863 50.309C38.3681 47.2108 39.9845 44.18 41.6908 41.194C43.397 38.2081 45.2379 35.312 47.1687 32.4607C50.5363 32.2138 53.9712 32.0791 57.4735 32.0791C60.9758 32.0791 64.4332 32.2138 67.7783 32.4607C69.6866 35.2895 71.5051 38.1857 73.2338 41.1491C74.9625 44.1126 76.579 47.1434 78.1056 50.2192C76.6014 53.3173 74.985 56.3706 73.2563 59.379C71.55 62.3649 69.7315 65.2611 67.8232 68.1347C64.4781 68.3817 60.9983 68.494 57.4735 68.494C53.9488 68.494 50.5363 68.3817 47.236 68.1796C45.2828 65.3284 43.4419 62.4098 41.7132 59.4239C39.9845 56.438 38.3905 53.4072 36.8863 50.309ZM77.4321 61.8037C78.5771 59.828 79.6547 57.8299 80.7099 55.8094C82.1467 59.0647 83.404 62.3649 84.504 65.755C81.0242 66.5407 77.4994 67.1469 73.9523 67.551C75.1646 65.6652 76.3096 63.7344 77.4321 61.8037ZM80.665 44.629C79.6098 42.6533 78.5322 40.6777 77.4096 38.7469C76.3096 36.8386 75.1646 34.9528 73.9747 33.0894C77.5892 33.5384 81.0466 34.1445 84.2795 34.8854C83.2468 38.2081 82.0345 41.441 80.665 44.629ZM57.5184 19.3721C59.8757 21.9314 62.0983 24.6255 64.1638 27.4094C59.7186 27.2073 55.2509 27.2073 50.8057 27.4094C53.0059 24.5132 55.2734 21.8192 57.5184 19.3721ZM31.4757 5.60984C35.2474 3.40968 43.6215 6.55277 52.4446 14.3656C53.0059 14.8595 53.5671 15.3983 54.1508 15.9371C50.671 19.6864 47.4606 23.6826 44.5195 27.8584C39.4457 28.3074 34.4168 29.0932 29.4327 30.1932C29.1409 29.0483 28.8939 27.8808 28.647 26.7134C26.5366 15.8473 27.9285 7.65284 31.4757 5.60984ZM25.9753 64.7896C25.0324 64.5202 24.1119 64.2283 23.1915 63.914C18.4095 62.4098 12.9764 60.0301 9.04759 56.9094C6.78008 55.3379 5.25344 52.9132 4.82688 50.1967C4.82688 46.0883 11.9213 40.8348 22.1587 37.2652C23.4384 36.8162 24.7406 36.4121 26.0427 36.0304C27.5693 40.9022 29.4103 45.6841 31.5431 50.309C29.3878 55.0011 27.5244 59.8505 25.9753 64.7896ZM52.1527 86.7912C48.4484 90.1812 44.1603 92.8753 39.4906 94.7162C36.9986 95.9061 34.1249 96.0184 31.5655 95.0081C27.9959 92.9426 26.5142 85.0176 28.5347 74.3536C28.7817 73.0963 29.0511 71.8391 29.3654 70.6043C34.3943 71.6819 39.4681 72.4228 44.6093 72.8045C47.5728 77.0027 50.8281 81.0214 54.308 84.7931C53.5896 85.4891 52.8711 86.1626 52.1527 86.7912ZM57.6531 81.3357C55.3632 78.8661 53.0732 76.1272 50.8506 73.1861C53.0059 73.2759 55.2285 73.3208 57.4735 73.3208C59.7859 73.3208 62.0534 73.2759 64.2985 73.1637C62.233 76.0149 60.0104 78.7314 57.6531 81.3357ZM86.996 88.0709C86.794 90.8098 85.447 93.3692 83.2917 95.0979C79.7221 97.1634 72.1113 94.4693 63.8944 87.4198C62.9515 86.6116 62.0085 85.736 61.0432 84.838C64.4781 81.0438 67.6436 77.0252 70.5173 72.8045C75.6585 72.3779 80.7772 71.5921 85.8286 70.4471C86.0531 71.3676 86.2552 72.2881 86.4348 73.1861C87.5349 78.0355 87.7145 83.0868 86.996 88.0709ZM91.0821 63.9365C90.4534 64.1385 89.8248 64.3406 89.1738 64.5202C87.6022 59.626 85.6715 54.844 83.4489 50.1967C85.6041 45.6168 87.4226 40.9022 88.9493 36.0753C90.1167 36.4121 91.2392 36.7713 92.3168 37.1305C102.779 40.7226 110.12 46.0658 110.12 50.1518C110.12 54.5521 102.285 60.2321 91.0821 63.9365ZM57.4735 60.5689C63.1535 60.5689 67.7559 55.9665 67.7559 50.2865C67.7559 44.6065 63.1535 40.0041 57.4735 40.0041C51.7935 40.0041 47.1911 44.6065 47.1911 50.2865C47.1911 55.9665 51.7935 60.5689 57.4735 60.5689Z" fill="#13173E"/>
</svg>
