<svg width="115" height="87" viewBox="0 0 115 87" fill="none" xmlns="http://www.w3.org/2000/svg">
<path d="M54.2119 65.1822C54.158 65.2899 54.1041 65.3761 54.2119 65.1822ZM98.9573 49.5564C95.345 49.5552 91.7807 50.3848 88.5401 51.9811C87.4805 49.8437 86.3849 47.9758 86.2053 46.5749C85.9897 44.9405 85.7562 43.9706 86.0077 42.0308C86.2591 40.0911 87.3907 37.3431 87.3727 37.1455C87.3547 36.948 87.1213 35.9601 84.8043 35.9422C82.4874 35.9242 80.4938 36.3912 80.2621 37.0018C79.8529 38.1178 79.5345 39.2651 79.3101 40.4323C78.897 42.5337 74.6781 50.0413 72.2893 53.9567C71.499 52.4301 70.8345 51.083 70.6908 50.0054C70.4753 48.371 70.2418 47.4011 70.4932 45.4613C70.7447 43.5216 71.8762 40.7736 71.8583 40.576C71.8403 40.3784 71.6068 39.3906 69.2917 39.3726C66.9765 39.3547 64.9811 39.8217 64.7476 40.4323C64.5141 41.043 64.2627 42.4798 63.7957 43.8628C63.3287 45.2458 57.7088 57.7464 56.2379 60.9973C55.4835 62.6497 54.8369 63.9788 54.3699 64.8768C54.2981 65.0205 54.2442 65.1103 54.2083 65.1822C54.2622 65.0924 54.2981 65.0025 54.2981 65.0385C53.903 65.8108 53.6695 66.2418 53.6695 66.2418V66.2598C53.3641 66.8345 53.0229 67.3554 52.8612 67.3554C52.7535 67.3554 52.52 65.8467 52.9151 63.7812C53.7593 59.4347 55.7529 52.6815 55.735 52.448C55.717 52.3223 56.1121 51.1549 54.4238 50.5262C52.7894 49.9335 52.1967 50.9214 52.053 50.9214C51.9093 50.9214 51.8016 51.2806 51.8016 51.2806C51.8016 51.2806 53.6156 43.6653 48.319 43.6653C45.0142 43.6653 40.4163 47.2933 38.1568 50.5801C36.7379 51.3524 33.6667 53.0228 30.4337 54.8009C29.1944 55.4834 27.9192 56.1838 26.7159 56.8484C26.6261 56.7586 26.5542 56.6688 26.4644 56.579C20.0363 49.718 8.16788 44.8686 8.67078 35.6548C8.85038 32.2961 10.0178 23.4774 31.4934 12.7729C49.0949 4.00806 63.1671 6.41479 65.59 11.7671C69.0744 19.4004 58.0662 33.6073 39.7877 35.6548C32.8207 36.4271 29.1585 33.733 28.2425 32.7272C27.2906 31.6675 27.1469 31.6136 26.7877 31.8112C26.195 32.1345 26.5722 33.0684 26.7877 33.6252C27.3265 35.0441 29.5716 37.5586 33.3955 38.8159C36.7541 39.9115 44.9226 40.5221 54.7992 36.6965C65.8953 32.4219 74.5326 20.5139 72.0001 10.5458C69.421 0.415926 52.6242 -2.9068 36.7415 2.73285C27.278 6.0915 17.044 11.3719 9.68196 18.2509C0.936908 26.441 -0.46223 33.5713 0.112512 36.5528C2.15823 47.1317 16.7387 54.0286 22.5741 59.1294C22.2868 59.291 22.0174 59.4347 21.7659 59.5784C18.8401 61.0332 7.72425 66.8525 4.94214 72.9951C1.79902 79.9638 5.463 84.9569 7.86794 85.6394C15.3737 87.7228 23.0591 83.969 27.1882 77.8085C31.3174 71.648 30.8163 63.6016 28.9125 59.9376C28.8945 59.8838 28.8586 59.8478 28.8406 59.7939C29.595 59.3449 30.3673 58.8959 31.1396 58.4469C32.6285 57.5668 34.0833 56.7586 35.3586 56.0581C34.6401 57.9979 34.1193 60.3328 33.8499 63.7094C33.5266 67.6607 35.161 72.7795 37.2804 74.7911C38.2143 75.6712 39.344 75.6892 40.0445 75.6892C42.5231 75.6892 43.6366 73.6416 44.8741 71.199C46.4008 68.2175 47.7478 64.7511 47.7478 64.7511C47.7478 64.7511 46.0595 74.1266 50.6754 74.1266C52.3619 74.1266 54.0502 71.9533 54.8064 70.8398V70.8577C54.8064 70.8577 54.8423 70.7859 54.9321 70.6422C55.1117 70.3728 55.2015 70.2111 55.2015 70.2111V70.1573C55.884 68.9898 57.3748 66.3137 59.6181 61.8953C62.5277 56.1838 65.3098 49.0535 65.3098 49.0535C65.5786 50.6209 65.9506 52.1689 66.4234 53.6873C66.9263 55.3936 67.9859 57.2615 68.8301 59.0755C68.1476 60.0095 67.7345 60.5483 67.7345 60.5483C67.7358 60.5621 67.7422 60.5749 67.7524 60.5842C67.2136 61.3026 66.603 62.075 65.9743 62.8293C63.6772 65.5593 60.9453 68.6845 60.5861 69.5825C60.1551 70.6422 60.2628 71.4325 61.089 72.0431C61.6997 72.5101 62.7773 72.582 63.9071 72.4922C65.9725 72.3485 67.4274 71.8456 68.1278 71.5223C69.4192 71.0592 70.6397 70.4184 71.7541 69.6184C73.9992 67.9661 75.3642 65.5952 75.2385 62.4701C75.1666 60.7459 74.6098 59.0216 73.9273 57.4052C74.1249 57.1178 74.3404 56.8125 74.538 56.5071C78.0924 51.3165 80.8404 45.6194 80.8404 45.6194C81.1092 47.1868 81.4812 48.7348 81.954 50.2532C82.385 51.708 83.2274 53.3065 83.9997 54.8691C80.6608 57.5812 78.5953 60.7243 77.8769 62.7898C76.5478 66.6154 77.5895 68.3396 79.5472 68.7348C80.4273 68.9144 81.6845 68.5013 82.6185 68.1062C84.0056 67.6441 85.3134 66.9718 86.4962 66.1125C88.7413 64.4601 90.9127 62.1432 90.7691 59.0001C90.7152 57.5812 90.32 56.1623 89.7992 54.7973C92.619 53.6119 96.2812 52.9653 100.951 53.5041C110.951 54.6716 112.909 60.9219 112.532 63.5262C112.155 66.1305 110.053 67.5853 109.353 68.0164C108.653 68.4474 108.437 68.609 108.491 68.9323C108.581 69.3993 108.904 69.3814 109.497 69.2736C110.323 69.1299 114.739 67.1542 114.937 62.3228C115.224 56.2162 109.353 49.4989 98.952 49.5528L98.9573 49.5564ZM21.8737 75.5455C18.5707 79.1556 13.9369 80.5206 11.945 79.3711C9.80769 78.1282 10.6518 72.8154 14.7271 68.9683C17.2057 66.6334 20.4009 64.4781 22.5203 63.149C23.0052 62.8616 23.7057 62.4306 24.5678 61.9097C24.7115 61.8199 24.7833 61.784 24.7833 61.784C24.945 61.6762 25.1246 61.5864 25.3042 61.4787C26.7931 66.9387 25.358 71.7522 21.8737 75.5419V75.5455ZM46.0056 59.1294C44.8562 61.9492 42.4333 69.1335 40.9605 68.7563C39.7032 68.433 38.9309 62.955 40.709 57.5668C41.6071 54.8548 43.5109 51.6218 44.6424 50.3646C46.4547 48.335 48.4483 47.6884 48.9153 48.4967C49.5439 49.5564 46.7241 57.3693 46.0056 59.1294ZM65.942 68.6486C65.4571 68.9 65.0081 69.0617 64.7925 68.9359C64.6309 68.8461 64.9901 68.5049 64.9901 68.5049C64.9901 68.5049 67.4866 65.8287 68.4745 64.6074C69.0492 63.889 69.7138 63.0448 70.4304 62.1109C70.4304 62.2007 70.4483 62.2905 70.4483 62.3982C70.425 65.6132 67.3376 67.7865 65.9366 68.6486H65.942ZM81.3128 65.1462C80.9536 64.8948 81.0074 64.0506 82.2108 61.4284C82.6778 60.4046 83.7536 58.6804 85.6233 57.028C85.835 57.6535 85.95 58.3076 85.9646 58.9678C85.9466 63.0089 83.0549 64.5176 81.3146 65.1462H81.3128Z" fill="#13173E"/>
</svg>
